<svg stroke="currentColor" fill="none" stroke-width="2" viewBox="0 0 24 24" stroke-linecap="round" stroke-linejoin="round" height="100%" width="100%"
    xmlns="http://www.w3.org/2000/svg">
    <path stroke="none" d="M0 0h24v24H0z" fill="none"></path>
    <path d="M13 13v-4a1 1 0 0 1 1 -1h6a1 1 0 0 1 1 1v2.5"></path>
    <path d="M18 8v-3a1 1 0 0 0 -1 -1h-13a1 1 0 0 0 -1 1v12a1 1 0 0 0 1 1h7"></path>
    <path d="M18 18m-3 0a3 3 0 1 0 6 0a3 3 0 1 0 -6 0"></path>
    <path d="M20.2 20.2l1.8 1.8"></path>
    <path d="M16 9h2"></path>
</svg>