<svg stroke="currentColor" fill="none" stroke-width="2" viewBox="0 0 24 24" stroke-linecap="round" stroke-linejoin="round" height="100%" width="100%"
    xmlns="http://www.w3.org/2000/svg">
    <path stroke="none" d="M0 0h24v24H0z" fill="none"></path>
    <path d="M9 3h-4a2 2 0 0 0 -2 2v4a2 2 0 0 0 2 2h4a2 2 0 0 0 2 -2v-4a2 2 0 0 0 -2 -2z" stroke-width="0" fill="currentColor"></path>
    <path d="M9 13h-4a2 2 0 0 0 -2 2v4a2 2 0 0 0 2 2h4a2 2 0 0 0 2 -2v-4a2 2 0 0 0 -2 -2z" stroke-width="0" fill="currentColor"></path>
    <path d="M19 13h-4a2 2 0 0 0 -2 2v4a2 2 0 0 0 2 2h4a2 2 0 0 0 2 -2v-4a2 2 0 0 0 -2 -2z" stroke-width="0" fill="currentColor"></path>
    <path d="M19 3h-4a2 2 0 0 0 -2 2v4a2 2 0 0 0 2 2h4a2 2 0 0 0 2 -2v-4a2 2 0 0 0 -2 -2z" stroke-width="0" fill="currentColor"></path>
</svg>