<svg stroke="currentColor" fill="none" stroke-width="2" viewBox="0 0 24 24" stroke-linecap="round" stroke-linejoin="round" height="100%" width="100%"
    xmlns="http://www.w3.org/2000/svg">
    <path stroke="none" d="M0 0h24v24H0z" fill="none"></path>
    <path d="M10 13a2 2 0 1 0 4 0a2 2 0 0 0 -4 0"></path>
    <path d="M8 21v-1a2 2 0 0 1 2 -2h4a2 2 0 0 1 2 2v1"></path>
    <path d="M15 5a2 2 0 1 0 4 0a2 2 0 0 0 -4 0"></path>
    <path d="M17 10h2a2 2 0 0 1 2 2v1"></path>
    <path d="M5 5a2 2 0 1 0 4 0a2 2 0 0 0 -4 0"></path>
    <path d="M3 13v-1a2 2 0 0 1 2 -2h2"></path>
</svg>